<svg xmlns="http://www.w3.org/2000/svg" width="72" height="72" viewBox="0 0 72 72" fill="none">
  <path d="M36 61.9995C50.3593 61.9995 61.9999 50.3592 61.9999 36.0002C61.9999 21.6412 50.3593 10.001 36 10.001C21.6406 10.001 10 21.6412 10 36.0002C10 50.3592 21.6406 61.9995 36 61.9995Z" fill="url(#paint0_radial_2569_14000)"/>
  <path opacity="0.4" d="M57.755 50.5453C53.0233 57.3738 45.1139 61.8485 36.1556 61.8485C22.3346 61.8485 11.0104 51.1976 10 37.6844C10.8251 25.3175 20.3021 15.2918 32.4512 13.5729L36.1705 13.3066C38.9292 13.1534 42.2967 12.6883 45.8897 11.4404C48.9042 12.6415 51.6427 14.384 53.9842 16.547C52.5098 22.5181 48.6437 26.0869 43.9494 27.381C43.9494 27.381 50.0544 29.1302 54.733 25.7609C54.733 25.7609 54.8652 34.6103 45.2464 35.9109C45.2464 35.9109 46.8303 38.473 50.7858 37.604C50.7858 37.604 49.6408 42.1647 43.4852 42.8122C37.5047 43.4416 37.6402 48.8618 37.6525 49.3527C37.6529 49.3669 37.6531 49.3769 37.6531 49.3827C37.6531 49.5873 38.0498 55.5215 46.352 55.5215C50.661 55.5419 54.7838 53.4385 57.755 50.5453Z" fill="black"/>
  <path fill-rule="evenodd" clip-rule="evenodd" d="M54.7945 3.30826C55.1752 4.25182 56.6616 8.2388 56.0486 11.6435C54.7945 18.5899 48.9776 22.4285 43.8381 23.8508C43.8381 23.8508 49.9125 25.598 54.5677 22.2326C54.5677 22.2326 54.6993 31.0717 45.1285 32.3709C45.1285 32.3709 46.7045 34.9299 50.6403 34.062C50.6403 34.062 49.501 38.6173 43.3761 39.2641C37.254 39.9109 37.5732 45.6226 37.5732 45.827C37.5732 46.0313 37.9678 51.9587 46.2286 51.9587C53.8847 51.9951 60.9502 45.267 61.9552 39.3621L61.9999 39.0821C60.4323 51.9895 49.4254 61.999 36.0979 61.999C21.6955 61.999 10 50.3039 10 35.8958C10 22.7477 19.7416 11.8562 32.3973 10.0587L36.0979 9.7927C41.0695 9.5155 48.0286 8.2164 54.7077 3.10107L54.7945 3.30826Z" fill="url(#paint1_radial_2569_14000)"/>
  <path d="M54.0408 54.8571C49.3638 59.2836 43.0448 61.9991 36.0903 61.9991C21.681 61.9991 10 50.3418 10 35.9619C10 28.7326 12.9524 22.1913 17.7195 17.4736L18.3432 17.0135C18.3432 17.0135 24.1146 10.0929 41.4129 12.7146C41.4129 12.7146 41.7446 21.812 32.3857 28.5338C32.3857 28.5338 33.7685 30.7351 39.0466 30.77C39.0466 30.77 34.769 35.7567 28.6972 35.3915C28.6972 35.3915 29.6069 38.6505 32.8479 38.6849C32.8479 38.6849 26.7508 41.6745 27.8291 48.0578C28.5362 52.2399 31.4099 58.8729 44.0456 59.0829C48.8656 59.163 52.4396 56.1319 53.6623 55.0949C53.8293 54.9533 53.9524 54.8489 54.0289 54.7947L54.0408 54.8571Z" fill="url(#paint2_linear_2569_14000)"/>
  <path d="M10 37.7782C10.9532 51.1916 21.96 61.8017 35.4684 61.9991L35.4694 61.9413C25.2678 61.7701 19.6219 53.5454 19.4932 46.5599C19.3223 37.592 24.6623 34.4475 24.6623 34.4475C24.6623 34.4475 21.2795 34.3267 21.3713 28.7756C21.4631 23.2216 27.5675 19.1557 27.5675 19.1557C18.2927 17.8614 10.1977 25.9822 10.0396 35.5464C10.0242 36.4783 10.0111 37.2104 10 37.7782Z" fill="url(#paint3_linear_2569_14000)"/>
  <defs>
    <radialGradient id="paint0_radial_2569_14000" cx="0" cy="0" r="1" gradientUnits="userSpaceOnUse" gradientTransform="translate(54.7948 21.2912) rotate(128.959) scale(51.0544 51.0547)">
      <stop stop-color="#DE3F0D"/>
      <stop offset="1" stop-color="#530006"/>
    </radialGradient>
    <radialGradient id="paint1_radial_2569_14000" cx="0" cy="0" r="1" gradientUnits="userSpaceOnUse" gradientTransform="translate(47.4491 14.3789) rotate(100.78) scale(46.6172 51.5942)">
      <stop stop-color="#FFA700"/>
      <stop offset="0.47" stop-color="#F47A02"/>
      <stop offset="1" stop-color="#D80507"/>
    </radialGradient>
    <linearGradient id="paint2_linear_2569_14000" x1="29.6737" y1="20.7362" x2="18.684" y2="68.059" gradientUnits="userSpaceOnUse">
      <stop stop-color="#FFCB00"/>
      <stop offset="0.298551" stop-color="#EE9004"/>
      <stop offset="0.741175" stop-color="#DD3B36"/>
      <stop offset="0.863118" stop-color="#DB1236"/>
    </linearGradient>
    <linearGradient id="paint3_linear_2569_14000" x1="24.2136" y1="20.4547" x2="21.0329" y2="57.9902" gradientUnits="userSpaceOnUse">
      <stop stop-color="#FFDF58"/>
      <stop offset="0.377045" stop-color="#EFBB5D"/>
      <stop offset="0.673025" stop-color="#ECA362"/>
      <stop offset="1" stop-color="#E65A6A"/>
    </linearGradient>
  </defs>
</svg>